<svg viewBox="0 0 24 24" fill="none" xmlns="http://www.w3.org/2000/svg"><g id="SVGRepo_bgCarrier" stroke-width="0"></g><g id="SVGRepo_tracerCarrier" stroke-linecap="round" stroke-linejoin="round"></g><g id="SVGRepo_iconCarrier"> <path d="M9 10C9 9.40666 9.17595 8.82664 9.50559 8.33329C9.83524 7.83994 10.3038 7.45543 10.852 7.22836C11.4001 7.0013 12.0033 6.94189 12.5853 7.05765C13.1672 7.1734 13.7018 7.45912 14.1213 7.87868C14.5409 8.29824 14.8266 8.83279 14.9424 9.41473C15.0581 9.99667 14.9987 10.5999 14.7716 11.1481C14.5446 11.6962 14.1601 12.1648 13.6667 12.4944C13.1734 12.8241 12.5933 13 12 13V14M5 21H19C20.1046 21 21 20.1046 21 19V5C21 3.89543 20.1046 3 19 3H5C3.89543 3 3 3.89543 3 5V19C3 20.1046 3.89543 21 5 21Z" stroke="#ffffff" stroke-width="2" stroke-linecap="round" stroke-linejoin="round"></path> <circle cx="12" cy="17" r="1" fill="#ffffff"></circle> </g></svg>